<svg width="16" height="16" viewBox="0 0 16 16" fill="none" xmlns="http://www.w3.org/2000/svg">
<g id="vuesax/bold/clock">
<g id="clock">
<path id="Vector" d="M7.9987 1.33398C4.32536 1.33398 1.33203 4.32732 1.33203 8.00065C1.33203 11.674 4.32536 14.6673 7.9987 14.6673C11.672 14.6673 14.6654 11.674 14.6654 8.00065C14.6654 4.32732 11.672 1.33398 7.9987 1.33398ZM10.8987 10.3807C10.8054 10.5407 10.6387 10.6273 10.4654 10.6273C10.3787 10.6273 10.292 10.6073 10.212 10.554L8.14536 9.32065C7.63203 9.01398 7.25203 8.34065 7.25203 7.74732V5.01398C7.25203 4.74065 7.4787 4.51398 7.75203 4.51398C8.02536 4.51398 8.25203 4.74065 8.25203 5.01398V7.74732C8.25203 7.98732 8.45203 8.34065 8.6587 8.46065L10.7254 9.69398C10.9654 9.83398 11.0454 10.1407 10.8987 10.3807Z" fill="#A5A5A7"/>
</g>
</g>
</svg>
