<svg width="16" height="16" viewBox="0 0 16 16" fill="none" xmlns="http://www.w3.org/2000/svg">
<g id="vuesax/bold/level">
<g id="level">
<path id="Vector" d="M7.9987 1.33398C4.3187 1.33398 1.33203 4.32065 1.33203 8.00065C1.33203 11.6807 4.3187 14.6673 7.9987 14.6673C11.6787 14.6673 14.6654 11.6807 14.6654 8.00065C14.6654 4.32065 11.6787 1.33398 7.9987 1.33398ZM4.66536 8.50065H3.33203C3.0587 8.50065 2.83203 8.27398 2.83203 8.00065C2.83203 7.72732 3.0587 7.50065 3.33203 7.50065H4.66536C4.9387 7.50065 5.16536 7.72732 5.16536 8.00065C5.16536 8.27398 4.9387 8.50065 4.66536 8.50065ZM7.9987 9.50065C7.17203 9.50065 6.4987 8.82732 6.4987 8.00065C6.4987 7.17398 7.17203 6.50065 7.9987 6.50065C8.82536 6.50065 9.4987 7.17398 9.4987 8.00065C9.4987 8.82732 8.82536 9.50065 7.9987 9.50065ZM12.6654 8.50065H11.332C11.0587 8.50065 10.832 8.27398 10.832 8.00065C10.832 7.72732 11.0587 7.50065 11.332 7.50065H12.6654C12.9387 7.50065 13.1654 7.72732 13.1654 8.00065C13.1654 8.27398 12.9387 8.50065 12.6654 8.50065Z" fill="#A5A5A7"/>
</g>
</g>
</svg>
